<svg id="Capa_1" enable-background="new 0 0 512 512" height="512" viewBox="0 0 512 512" width="512" xmlns="http://www.w3.org/2000/svg"><g><g><path d="m430.23 493.076-166.45 9-164.934-9v-152.274l27-100.022-27-73.945v-161.674c0-2.851 2.311-5.161 5.161-5.161h326.223l27 251.038z" fill="#f6e080"/><path d="m109.445 512h320.785l9-9.29-9-9.29h-331.383v7.983c0 5.852 4.745 10.597 10.598 10.597z" fill="#eccd61"/><path d="m430.23 340.802-161.192 9-170.191-9v-173.967h331.383l27 84.203z" fill="#e2ae84"/><path d="m98.847 339.597h331.383v18.581h-331.383z" fill="#d7a379"/><g><path d="m112.402 292.823c.03-.507.046-1.018.046-1.533 0-13.948-11.307-25.255-25.255-25.255-11.323 0-20.905 7.452-24.111 17.719s-2.445 6.453-2.445 6.453l7.875 2.616 19.253 9z" fill="#dc4955"/><path d="m68.512 292.823-7.655 8.137 6.738 10.444 16.816 9 18.051-9c5.686-4.323 9.486-11 9.94-18.581z" fill="#d82f3c"/><path d="m68.51 292.823c-3.387-9.954-12.807-17.118-23.907-17.118s-20.52 7.164-23.907 17.118l23.907 9z" fill="#f6e080"/><path d="m160.533 276.306 22.883-20.957c-4.025-8.605-12.756-14.569-22.883-14.569-10.897 0-20.182 6.902-23.723 16.572z" fill="#f6e080"/><path d="m185.189 271.496c.388-1.759.599-3.585.599-5.461 0-3.82-.853-7.44-2.371-10.686-16.67 2.986-22.883 11.957-22.883 11.957-6.12-5.725-15.562-8.555-23.723-9.953-.991 2.707-1.532 5.632-1.532 8.683 0 3.431.687 6.7 1.926 9.682h.002c.162-.003 24.526 21.822 25.597 22.781.017.015.04-.039.041-.016.023.35 22.344-26.987 22.344-26.987z" fill="#eccd61"/><path d="m161.61 292.823c-3.387-9.954-12.807-17.118-23.908-17.118-11.1 0-20.52 7.164-23.907 17.118l23.907 9z" fill="#b3e59f"/><path d="m212.99 292.823c-1.819-12.161-12.306-21.488-24.974-21.488s-23.155 9.327-24.974 21.488l24.974 9z" fill="#dc4955"/><path d="m390.488 159.66c5.861-5.552 3.723-20.516 1.516-27.718-7.653-3.268-16.869-1.678-22.952 4.743l-131.706 139.049 4.396 7.505 10.671-3.361 12.142 2.137z" fill="#e7ecf1"/><g><g><g><path d="m398.451 136.287c-1.911-1.911-4.109-3.346-6.447-4.345 2.207 7.203.37 15.367-5.491 20.919l-134.1 127.017v13.96h10.342l135.297-128.152c8.384-7.941 8.564-21.234.399-29.399z" fill="#c6d0da"/></g></g></g><path d="m262.433 292.823c-3.387-9.954-12.808-17.118-23.907-17.118-11.1 0-20.521 7.164-23.908 17.118l23.907 9z" fill="#b3e59f"/><path d="m311.807 292.823c-4.075-8.474-12.741-14.323-22.772-14.323-10.032 0-18.697 5.849-22.772 14.323l22.772 9z" fill="#f6e080"/><path d="m362.317 292.823c-4.075-8.474-12.74-14.323-22.772-14.323s-18.697 5.849-22.772 14.323l22.772 9z" fill="#dc4955"/><path d="m364.8 303.755c0-3.916-.892-7.624-2.483-10.932h-45.544c-1.591 3.308-2.483 7.016-2.483 10.932 0 2.667.416 5.235 1.182 7.648l24.072 9 24.073-9c.766-2.413 1.183-4.981 1.183-7.648z" fill="#d82f3c"/><path d="m213.271 300.959c0 3.726.814 7.26 2.262 10.444l22.993 9 22.993-9c1.449-3.184 2.262-6.718 2.262-10.444 0-2.848-.478-5.583-1.347-8.137h-47.815c-.87 2.555-1.348 5.289-1.348 8.137z" fill="#95d6a4"/><path d="m263.78 303.755c0 2.667.416 5.235 1.182 7.648l24.073 9 24.073-9c.766-2.413 1.182-4.982 1.182-7.648 0-3.916-.892-7.624-2.483-10.932h-45.544c-1.591 3.308-2.483 7.016-2.483 10.932z" fill="#eccd61"/><path d="m19.348 300.959c0 3.726.813 7.26 2.262 10.444l22.993 9 22.993-9c1.449-3.184 2.262-6.718 2.262-10.444 0-2.848-.478-5.583-1.347-8.137h-47.816c-.869 2.555-1.347 5.289-1.347 8.137z" fill="#eccd61"/><path d="m162.761 296.59c0 5.536 1.786 10.652 4.806 14.814l20.449 9 20.449-9c3.02-4.162 4.806-9.278 4.806-14.814 0-1.28-.097-2.538-.281-3.767h-49.948c-.184 1.229-.281 2.486-.281 3.767z" fill="#d82f3c"/><path d="m112.448 300.959c0 3.726.813 7.26 2.262 10.444l22.993 9 22.993-9c1.449-3.184 2.262-6.718 2.262-10.444 0-2.848-.478-5.583-1.347-8.137h-47.815c-.87 2.555-1.348 5.289-1.348 8.137z" fill="#95d6a4"/><path d="m98.847 472.275 94.86-9 94.861 9v10.546 9.581c0 5.853-4.745 10.598-10.598 10.598h-168.525c-5.853 0-10.598-4.745-10.598-10.598v-9.581z" fill="#808b95"/><path d="m277.969 493.419h-168.524c-5.853 0-10.598-4.745-10.598-10.598v18.581c0 5.853 4.745 10.598 10.598 10.598h168.525c5.853 0 10.598-4.745 10.598-10.598v-18.581c0 5.853-4.745 10.598-10.599 10.598z" fill="#5e6b75"/><path d="m382.144 311.403h-376.874c-2.979 0-5.342 2.508-5.152 5.481 1.293 20.162 10.007 91.389 68.585 136.81l125.003 9 125.003-9c58.579-45.421 67.293-116.648 68.586-136.81.192-2.972-2.172-5.481-5.151-5.481z" fill="#9ec8fc"/><path d="m68.706 453.695c8.861 6.871 18.85 13.157 30.14 18.581h189.721c11.29-5.423 21.279-11.71 30.14-18.581z" fill="#80b6fc"/></g><path d="m430.23 493.419 40.831 9 40.831-9v-488.258c0-2.851-2.311-5.161-5.161-5.161h-76.501z" fill="#ecb85e"/><path d="m430.23 512h76.501c2.85 0 5.161-2.311 5.161-5.161v-13.419h-81.662z" fill="#eaa949"/></g><g><g fill="#fcf5f5"><path d="m482.686 43.868h-22.408c-4.284 0-7.757 3.473-7.757 7.757s3.473 7.757 7.757 7.757h22.408c4.284 0 7.757-3.473 7.757-7.757s-3.473-7.757-7.757-7.757z"/><path d="m482.686 74.256h-22.408c-4.284 0-7.757 3.473-7.757 7.757s3.473 7.757 7.757 7.757h22.408c4.284 0 7.757-3.473 7.757-7.757 0-4.283-3.473-7.757-7.757-7.757z"/><path d="m482.686 104.862h-22.408c-4.284 0-7.757 3.473-7.757 7.757s3.473 7.757 7.757 7.757h22.408c4.284 0 7.757-3.473 7.757-7.757s-3.473-7.757-7.757-7.757z"/><path d="m482.686 425.028h-22.408c-4.284 0-7.757 3.473-7.757 7.757s3.473 7.757 7.757 7.757h22.408c4.284 0 7.757-3.473 7.757-7.757s-3.473-7.757-7.757-7.757z"/><path d="m482.686 455.633h-22.408c-4.284 0-7.757 3.473-7.757 7.757s3.473 7.757 7.757 7.757h22.408c4.284 0 7.757-3.473 7.757-7.757s-3.473-7.757-7.757-7.757z"/></g><path d="m352.186 68.822c0-4.284-3.473-7.757-7.757-7.757h-159.748c-4.284 0-7.757 3.473-7.757 7.757s3.473 7.757 7.757 7.757h159.748c4.284 0 7.757-3.473 7.757-7.757z" fill="#ecb85e"/><path d="m322.741 105.06c0-4.284-3.473-7.757-7.757-7.757h-100.858c-4.284 0-7.757 3.473-7.757 7.757s3.473 7.757 7.757 7.757h100.858c4.284 0 7.757-3.473 7.757-7.757z" fill="#ecb85e"/></g></g></svg>