<?xml version="1.0" encoding="iso-8859-1"?>
<!-- Generator: Adobe Illustrator 19.0.0, SVG Export Plug-In . SVG Version: 6.00 Build 0)  -->
<svg version="1.1" id="Capa_1" xmlns="http://www.w3.org/2000/svg" xmlns:xlink="http://www.w3.org/1999/xlink" x="0px" y="0px"
	 viewBox="0 0 512 512" style="enable-background:new 0 0 512 512;" xml:space="preserve">
<g>
	<path style="fill:#F26876;" d="M443.529,206.561h-67.939c-4.271,0-7.732-3.462-7.732-7.732s3.461-7.732,7.732-7.732h67.939
		c4.271,0,7.732,3.462,7.732,7.732S447.8,206.561,443.529,206.561z"/>
	<path style="fill:#F26876;" d="M431.159,232.454h-67.597c-4.271,0-7.732-3.462-7.732-7.732s3.461-7.732,7.732-7.732h67.597
		c4.271,0,7.732,3.462,7.732,7.732S435.43,232.454,431.159,232.454z"/>
</g>
<path style="fill:#F48976;" d="M188.793,118.882v157.852c-37.36,0-67.648,30.298-67.648,67.658s30.288,67.648,67.648,67.648v59.607
	c-97.41,0-176.377-78.967-176.377-176.387C12.416,197.849,91.383,118.882,188.793,118.882z"/>
<g>
	<path style="fill:#F26876;" d="M38.792,295.259c0,88.451,65.101,161.697,149.996,174.428v1.959
		c-97.41,0-176.377-78.967-176.377-176.387c0-97.41,78.967-176.377,176.377-176.377v1.959
		C103.893,133.573,38.792,206.818,38.792,295.259z"/>
	<path style="fill:#F26876;" d="M407.86,118.882v46.36c0,61.576-49.916,111.492-111.492,111.492H188.793V118.882H407.86z"/>
</g>
<path style="fill:#F48976;" d="M407.86,118.882v20.082c0,61.565-49.916,111.482-111.492,111.482H188.793V118.882
	C188.793,118.882,407.86,118.882,407.86,118.882z"/>
<g>
	<path style="fill:#F26876;" d="M188.793,250.446v26.288c-37.36,0-67.648,30.298-67.648,67.658
		C121.145,280.992,143.547,250.446,188.793,250.446z"/>
	<path style="fill:#F26876;" d="M188.794,284.469c-4.27,0-7.732-3.462-7.732-7.732V118.878c0-4.27,3.462-7.732,7.732-7.732
		s7.732,3.462,7.732,7.732v157.859C196.526,281.007,193.064,284.469,188.794,284.469z"/>
</g>
<circle style="fill:#393B85;" cx="332.156" cy="174.717" r="18.701"/>
<g>
	<path style="fill:#F26876;" d="M142.292,302.995c-2.792,0-5.486-1.516-6.865-4.164L66.164,165.764
		c-1.971-3.788-0.499-8.456,3.289-10.429c3.789-1.971,8.456-0.499,10.429,3.289l69.263,133.068
		c1.972,3.788,0.499,8.456-3.289,10.429C144.715,302.714,143.494,302.995,142.292,302.995z"/>
	<path style="fill:#F26876;" d="M121.135,352.125c-1.065,0-2.146-0.221-3.179-0.688L9.227,302.308
		c-3.891-1.759-5.62-6.338-3.862-10.23c1.758-3.892,6.337-5.62,10.23-3.863l108.729,49.13c3.891,1.759,5.62,6.338,3.862,10.23
		C126.895,350.433,124.08,352.125,121.135,352.125z"/>
	<path style="fill:#F26876;" d="M64.484,428.118c-3.148,0-6.107-1.937-7.258-5.064c-1.474-4.007,0.579-8.451,4.586-9.926
		l76.486-28.142c4.007-1.475,8.451,0.579,9.926,4.586c1.474,4.007-0.579,8.451-4.586,9.927l-76.485,28.14
		C66.273,427.964,65.371,428.118,64.484,428.118z"/>
	<path style="fill:#F26876;" d="M453.05,172.978h-68.28c-4.271,0-7.732-3.462-7.732-7.732s3.461-7.732,7.732-7.732h68.28
		c21.399,0,38.809-17.41,38.809-38.809s-17.41-38.809-38.809-38.809H87.226c-22.027,0-39.947-17.92-39.947-39.947
		C47.278,17.92,65.198,0,87.226,0h85.705c4.27,0,7.732,3.462,7.732,7.732s-3.462,7.732-7.732,7.732H87.226
		c-13.501,0-24.484,10.983-24.484,24.484s10.983,24.484,24.484,24.484H453.05c29.926,0,54.273,24.347,54.273,54.273
		C507.323,148.631,482.977,172.978,453.05,172.978z"/>
	<path style="fill:#F26876;" d="M328.714,367.851c0,39.803-32.267,72.07-72.07,72.07h-80.575c0-5.68,0.66-11.196,1.897-16.494
		c7.464-31.855,36.051-55.576,70.184-55.576H328.714z"/>
</g>
<g>
	<path style="fill:#F48976;" d="M326.817,367.851c-7.453,31.855-36.04,55.576-70.173,55.576h-78.678
		c7.464-31.855,36.051-55.576,70.184-55.576H326.817z"/>
	<path style="fill:#F48976;" d="M176.073,439.927h80.569c39.805,0,72.073,32.268,72.073,72.073l0,0h-80.569
		C208.341,512,176.073,479.732,176.073,439.927L176.073,439.927z"/>
</g>
<path style="fill:#F26876;" d="M248.146,490.352c-32.262,0-59.568-21.199-68.76-50.426h-3.313l0,0
	c0,39.805,32.268,72.073,72.073,72.073h80.569l0,0c0-7.543-1.164-14.814-3.313-21.648H248.146z"/>
<g>
</g>
<g>
</g>
<g>
</g>
<g>
</g>
<g>
</g>
<g>
</g>
<g>
</g>
<g>
</g>
<g>
</g>
<g>
</g>
<g>
</g>
<g>
</g>
<g>
</g>
<g>
</g>
<g>
</g>
</svg>
